<svg xmlns="http://www.w3.org/2000/svg" width="146.965" height="40.845" viewBox="0 0 146.965 40.845">
  <g id="Group_4375" data-name="Group 4375" transform="translate(-188.008 -588.494)">
    <path id="Path_29252" data-name="Path 29252" d="M968.438,1063.728a7.72,7.72,0,0,1-3.069-3.12,10.744,10.744,0,0,1,0-9.406,7.656,7.656,0,0,1,3.1-3.1,9.752,9.752,0,0,1,4.722-1.094,9.432,9.432,0,0,1,4.606,1.042,7.077,7.077,0,0,1,2.914,2.985,10.03,10.03,0,0,1,1.023,4.7v.643a3.786,3.786,0,0,1-.052.482H966.675v-2.786h11.58l-1.222,1.711a5.3,5.3,0,0,0,.238-.643,2.015,2.015,0,0,0,.129-.643,5.011,5.011,0,0,0-.534-2.374,3.957,3.957,0,0,0-1.486-1.563,4.287,4.287,0,0,0-2.213-.56,4.84,4.84,0,0,0-2.573.643,4.181,4.181,0,0,0-1.634,1.93,8.111,8.111,0,0,0-.6,3.12,7.858,7.858,0,0,0,.56,3.139,4.124,4.124,0,0,0,1.653,1.93,5.01,5.01,0,0,0,2.657.643,5.89,5.89,0,0,0,2.856-.643,5.331,5.331,0,0,0,2.046-2.046l3.455,1.415a8.826,8.826,0,0,1-3.455,3.455,10.524,10.524,0,0,1-5.089,1.152,9.245,9.245,0,0,1-4.606-1.016Z" transform="translate(-736.027 -446.972)" fill="#f9b233"/>
    <path id="Path_29253" data-name="Path 29253" d="M998.317,1053.757a7.338,7.338,0,0,0,2.174,1.743,5.738,5.738,0,0,0,2.676.643,4.284,4.284,0,0,0,2.9-.965,3.165,3.165,0,0,0,1.113-2.49,3.577,3.577,0,0,0-.708-2.323,5.591,5.591,0,0,0-1.93-1.486,28.469,28.469,0,0,0-2.882-1.21,20.707,20.707,0,0,1-2.155-.913,11.417,11.417,0,0,1-2.264-1.448,7.121,7.121,0,0,1-1.782-2.155,6.916,6.916,0,0,1,.373-6.761,7.078,7.078,0,0,1,2.914-2.451,9.593,9.593,0,0,1,4.182-.875,9.007,9.007,0,0,1,6.89,2.9,10.876,10.876,0,0,1,1.84,2.638l-3.564,2.007a8.465,8.465,0,0,0-1.229-1.808,5.908,5.908,0,0,0-1.731-1.332,4.876,4.876,0,0,0-2.284-.5,3.7,3.7,0,0,0-2.676.836,2.638,2.638,0,0,0-.849,1.93,2.864,2.864,0,0,0,.643,1.8,5.856,5.856,0,0,0,1.93,1.505,24.7,24.7,0,0,0,3.384,1.448,15.926,15.926,0,0,1,2.322,1.042,9.4,9.4,0,0,1,2.136,1.576,7.357,7.357,0,0,1,1.544,2.213,7.186,7.186,0,0,1,.573,2.972,7.366,7.366,0,0,1-.708,3.268,7.012,7.012,0,0,1-1.93,2.432,9.344,9.344,0,0,1-2.766,1.525,9.647,9.647,0,0,1-3.217.54,9.855,9.855,0,0,1-4.252-.914,11.19,11.19,0,0,1-3.4-2.432,12.925,12.925,0,0,1-2.3-3.307l3.275-2.265a16.219,16.219,0,0,0,1.763,2.612Z" transform="translate(-746.369 -442.001)" fill="#f9b233"/>
    <path id="Path_29254" data-name="Path 29254" d="M1028.3,1060.638a2.446,2.446,0,0,0,1.132.907,4.3,4.3,0,0,0,1.653.3,4.877,4.877,0,0,0,2.174-.482,3.931,3.931,0,0,0,2.213-3.641l.592,2.232a4.02,4.02,0,0,1-.946,2.728,5.707,5.707,0,0,1-2.38,1.634,8.17,8.17,0,0,1-2.914.54,7.075,7.075,0,0,1-2.972-.643,5.044,5.044,0,0,1-3.011-4.832,4.9,4.9,0,0,1,1.75-3.956,7.447,7.447,0,0,1,4.941-1.467,10.287,10.287,0,0,1,2.953.373,8.5,8.5,0,0,1,2.059.868,4.5,4.5,0,0,1,1.152.914v2.039a7.989,7.989,0,0,0-2.451-1.184,9.835,9.835,0,0,0-2.747-.373,5.506,5.506,0,0,0-2.046.315,2.574,2.574,0,0,0-1.171.875,2.342,2.342,0,0,0-.386,1.37A2.619,2.619,0,0,0,1028.3,1060.638Zm-3.307-11.58a16.542,16.542,0,0,1,2.992-1.377,12.358,12.358,0,0,1,4.22-.643,10.289,10.289,0,0,1,3.731.643,5.962,5.962,0,0,1,2.573,1.8,4.5,4.5,0,0,1,.927,2.882v12.185h-3.937v-11.406a2.906,2.906,0,0,0-.277-1.338,2.445,2.445,0,0,0-.766-.856,3.4,3.4,0,0,0-1.151-.482,6.811,6.811,0,0,0-1.448-.148,8.807,8.807,0,0,0-2.252.283,8.62,8.62,0,0,0-1.821.643,9.974,9.974,0,0,0-1.132.643Z" transform="translate(-757.266 -446.983)" fill="#f9b233"/>
    <path id="Path_29255" data-name="Path 29255" d="M1056.717,1029.1v28.982h-3.937V1029.1ZM1067.9,1041l-7.353,7.077,8.1,10.029h-4.87l-8.17-10.029L1063,1041Z" transform="translate(-767.59 -440.587)" fill="#f9b233"/>
    <path id="Path_29256" data-name="Path 29256" d="M1083.294,1058.082h-4.014V1029.1h4.014Zm6.228-13.266a2.914,2.914,0,0,0-2.438-.965,3.951,3.951,0,0,0-1.969.483,3.521,3.521,0,0,0-1.338,1.338,4.026,4.026,0,0,0-.482,2.007h-.978a8.446,8.446,0,0,1,.746-3.641,6.319,6.319,0,0,1,2.1-2.573,5.519,5.519,0,0,1,3.287-.971,6.479,6.479,0,0,1,3.217.746,4.74,4.74,0,0,1,1.988,2.213,8.83,8.83,0,0,1,.644,3.654v10.937h-4.053v-10.351A4.573,4.573,0,0,0,1089.522,1044.817Z" transform="translate(-777.042 -440.587)" fill="#f9b233"/>
    <path id="Path_29257" data-name="Path 29257" d="M1110.38,1060.638a2.443,2.443,0,0,0,1.132.907,4.3,4.3,0,0,0,1.653.3,4.877,4.877,0,0,0,2.175-.482,3.917,3.917,0,0,0,1.6-1.428,3.963,3.963,0,0,0,.643-2.213l.592,2.232a4.019,4.019,0,0,1-.946,2.728,5.706,5.706,0,0,1-2.38,1.634,8.171,8.171,0,0,1-2.914.541,7.078,7.078,0,0,1-2.972-.643,5.044,5.044,0,0,1-3.011-4.831,4.9,4.9,0,0,1,1.743-3.957,7.48,7.48,0,0,1,4.941-1.467,10.29,10.29,0,0,1,2.959.373,8.6,8.6,0,0,1,2.059.869,4.5,4.5,0,0,1,1.152.913v2.039a8,8,0,0,0-2.451-1.184,9.836,9.836,0,0,0-2.747-.373,5.5,5.5,0,0,0-2.046.315,2.528,2.528,0,0,0-1.171.875,2.343,2.343,0,0,0-.392,1.37A2.626,2.626,0,0,0,1110.38,1060.638Zm-3.307-11.58a16.557,16.557,0,0,1,2.991-1.377,12.325,12.325,0,0,1,4.214-.643,10.294,10.294,0,0,1,3.738.643,5.942,5.942,0,0,1,2.573,1.8,4.5,4.5,0,0,1,.933,2.882v12.185h-3.963v-11.406a2.823,2.823,0,0,0-.283-1.338,2.425,2.425,0,0,0-.759-.855,3.4,3.4,0,0,0-1.152-.483,6.848,6.848,0,0,0-1.447-.148,8.785,8.785,0,0,0-2.252.283,8.647,8.647,0,0,0-1.821.643,9.462,9.462,0,0,0-1.132.643Z" transform="translate(-786.552 -446.983)" fill="#f9b233"/>
    <path id="Path_29258" data-name="Path 29258" d="M908.8,1056.733H901.72l13.671-27.663,13.709,27.663h-7.154m-6.575-16.456" transform="translate(-713.712 -440.576)" fill="#2f7dff"/>
    <path id="Path_29259" data-name="Path 29259" d="M908.8,1065.533H901.72l13.671-16.463,13.709,16.463h-7.154m-6.575-9.8" transform="translate(-713.712 -447.709)" fill="#f9b233" opacity="0.75"/>
    <path id="Path_29260" data-name="Path 29260" d="M989.39,1089.607v-5.243h.643v5.243Zm3.345-2.483a1.641,1.641,0,0,1-.643.643,1.8,1.8,0,0,1-.888.225,1.364,1.364,0,0,1-.772-.225,1.461,1.461,0,0,1-.528-.643,2.722,2.722,0,0,1,0-1.981,1.518,1.518,0,0,1,.527-.643,1.357,1.357,0,0,1,.772-.219,1.8,1.8,0,0,1,.888.219,1.71,1.71,0,0,1,.643.643A2.129,2.129,0,0,1,992.735,1087.124Zm-.547-1.679a1.075,1.075,0,0,0-.444-.438,1.284,1.284,0,0,0-.6-.141,1.086,1.086,0,0,0-.534.141,1.173,1.173,0,0,0-.431.438,1.286,1.286,0,0,0-.167.695,1.326,1.326,0,0,0,.167.695,1.2,1.2,0,0,0,.431.431,1.1,1.1,0,0,0,.534.148,1.287,1.287,0,0,0,.6-.148,1.1,1.1,0,0,0,.444-.431,1.39,1.39,0,0,0,.167-.695,1.358,1.358,0,0,0-.167-.695Z" transform="translate(-744.981 -460.268)" fill="#706f6f"/>
    <path id="Path_29261" data-name="Path 29261" d="M996.048,1085.189a1.851,1.851,0,0,1,.643-.643,1.93,1.93,0,0,1,1.872,0,1.782,1.782,0,0,1,.643.643,1.865,1.865,0,0,1,.244.958,1.891,1.891,0,0,1-.244.952,1.738,1.738,0,0,1-.643.643,1.93,1.93,0,0,1-1.872,0,1.8,1.8,0,0,1-.643-.643,1.885,1.885,0,0,1-.238-.952,1.859,1.859,0,0,1,.238-.958Zm.547,1.615a1.182,1.182,0,0,0,2.1,0,1.435,1.435,0,0,0,0-1.287,1.121,1.121,0,0,0-.431-.45,1.2,1.2,0,0,0-.643-.161,1.164,1.164,0,0,0-.643.161,1.081,1.081,0,0,0-.431.45,1.434,1.434,0,0,0,0,1.287Z" transform="translate(-747.271 -460.276)" fill="#706f6f"/>
    <path id="Path_29262" data-name="Path 29262" d="M1002.515,1084.26l.888,2.3.965-2.573,1.036,2.573.894-2.322h.695l-1.544,3.821-1.074-2.573-1.01,2.573-1.544-3.821Z" transform="translate(-749.414 -460.164)" fill="#706f6f"/>
    <path id="Path_29263" data-name="Path 29263" d="M1010.964,1087.761a1.607,1.607,0,0,1-.592-.643,2.129,2.129,0,0,1-.212-.965,2.066,2.066,0,0,1,.219-.978,1.608,1.608,0,0,1,.643-.643,1.8,1.8,0,0,1,.92-.232,1.73,1.73,0,0,1,.9.219,1.436,1.436,0,0,1,.579.643,2.284,2.284,0,0,1,.2.978.647.647,0,0,1,0,.109v.077h-3.036v-.528h2.573l-.244.354a.194.194,0,0,1,.045-.116.64.64,0,0,0,0-.135,1.152,1.152,0,0,0-.122-.553.954.954,0,0,0-.354-.36.992.992,0,0,0-.528-.129,1.139,1.139,0,0,0-.6.148,1,1,0,0,0-.386.431,1.846,1.846,0,0,0,0,1.4.971.971,0,0,0,.38.45,1.289,1.289,0,0,0,.643.154,1.222,1.222,0,0,0,1.113-.643l.5.315a1.882,1.882,0,0,1-.695.643,2.033,2.033,0,0,1-.991.232A1.674,1.674,0,0,1,1010.964,1087.761Z" transform="translate(-752.389 -460.274)" fill="#706f6f"/>
    <path id="Path_29264" data-name="Path 29264" d="M1017.423,1087.918h-.643v-3.551h.643Zm.849-3.011a.743.743,0,0,0-.257-.039.515.515,0,0,0-.36.116.547.547,0,0,0-.18.315,1.6,1.6,0,0,0-.051.45h-.277a1.736,1.736,0,0,1,.148-.746,1.427,1.427,0,0,1,.392-.521.758.758,0,0,1,.483-.193,1.287,1.287,0,0,1,.36.045.753.753,0,0,1,.3.2l-.334.508a1.885,1.885,0,0,0-.225-.135Z" transform="translate(-754.75 -460.271)" fill="#706f6f"/>
    <path id="Path_29265" data-name="Path 29265" d="M1021.08,1087.761a1.582,1.582,0,0,1-.6-.643,2.131,2.131,0,0,1-.212-.965,2.073,2.073,0,0,1,.225-.978,1.524,1.524,0,0,1,.643-.643,1.794,1.794,0,0,1,.92-.232,1.75,1.75,0,0,1,.9.219,1.423,1.423,0,0,1,.573.643,2.194,2.194,0,0,1,.2.978v.109a.44.44,0,0,0,0,.077h-3.03v-.527h2.573l-.251.354a.337.337,0,0,0,.045-.116.444.444,0,0,0,0-.135,1.152,1.152,0,0,0-.129-.553.934.934,0,0,0-.347-.36,1.019,1.019,0,0,0-.527-.129,1.124,1.124,0,0,0-.6.148,1,1,0,0,0-.386.431,1.583,1.583,0,0,0-.142.688,1.687,1.687,0,0,0,.129.714,1.024,1.024,0,0,0,.386.45,1.221,1.221,0,0,0,.643.154,1.286,1.286,0,0,0,.643-.161,1.35,1.35,0,0,0,.47-.482l.5.315a1.852,1.852,0,0,1-.7.643,2.015,2.015,0,0,1-.991.231,1.646,1.646,0,0,1-.933-.232Z" transform="translate(-755.995 -460.275)" fill="#706f6f"/>
    <path id="Path_29266" data-name="Path 29266" d="M1026.694,1083.815a1.732,1.732,0,0,1,.643-.643,1.791,1.791,0,0,1,.881-.219,1.364,1.364,0,0,1,.778.219,1.507,1.507,0,0,1,.521.643,2.639,2.639,0,0,1,0,1.982,1.447,1.447,0,0,1-.521.643,1.372,1.372,0,0,1-.778.225,1.8,1.8,0,0,1-.881-.225,1.653,1.653,0,0,1-.643-.643A2.129,2.129,0,0,1,1026.694,1083.815Zm.547,1.692a1.182,1.182,0,0,0,.444.431,1.287,1.287,0,0,0,.6.148,1.1,1.1,0,0,0,.534-.148,1.2,1.2,0,0,0,.431-.431,1.323,1.323,0,0,0,.167-.694,1.287,1.287,0,0,0-.167-.695,1.171,1.171,0,0,0-.431-.438,1.089,1.089,0,0,0-.534-.141,1.285,1.285,0,0,0-.6.141,1.159,1.159,0,0,0-.444.438,1.361,1.361,0,0,0-.161.695,1.391,1.391,0,0,0,.161.695Zm2.8-4.947v6.028h-.643v-6.028Z" transform="translate(-758.199 -458.941)" fill="#706f6f"/>
    <path id="Path_29267" data-name="Path 29267" d="M1037.913,1086.588h-.643v-6.028h.643Zm2.734-.791a1.7,1.7,0,0,1-.643.643,1.777,1.777,0,0,1-.881.225,1.383,1.383,0,0,1-.778-.225,1.449,1.449,0,0,1-.521-.643,2.637,2.637,0,0,1,0-1.981,1.506,1.506,0,0,1,.521-.643,1.376,1.376,0,0,1,.778-.219,1.692,1.692,0,0,1,1.518.855,2.181,2.181,0,0,1,0,1.982Zm-.547-1.679a1.159,1.159,0,0,0-.444-.437,1.285,1.285,0,0,0-.6-.141,1.088,1.088,0,0,0-.534.141,1.128,1.128,0,0,0-.431.438,1.287,1.287,0,0,0-.174.695,1.327,1.327,0,0,0,.174.695,1.15,1.15,0,0,0,.431.431,1.1,1.1,0,0,0,.534.148,1.288,1.288,0,0,0,.6-.148,1.184,1.184,0,0,0,.444-.431,1.389,1.389,0,0,0,.161-.695,1.358,1.358,0,0,0-.161-.695Z" transform="translate(-762.058 -458.941)" fill="#706f6f"/>
    <path id="Path_29268" data-name="Path 29268" d="M1044.211,1089.653h-.695l.978-2.194-1.364-3.049h.733l1.132,2.779h-.257l1.094-2.747h.695Z" transform="translate(-764.149 -460.314)" fill="#706f6f"/>
    <path id="Path_29269" data-name="Path 29269" d="M1053.672,1084.755l-.064.135-.8,1.93h-.733l2.509-5.681,2.509,5.681h-.733l-.785-1.853-.064-.155-.926-2.181Zm-.27-.206h2.393l.232.643h-2.856Z" transform="translate(-767.337 -459.148)" fill="#706f6f"/>
    <path id="Path_29270" data-name="Path 29270" d="M1063.075,1081.52h.733l-2.509,5.681-2.509-5.681h.733l1.776,4.188Z" transform="translate(-769.734 -459.283)" fill="#706f6f"/>
    <path id="Path_29271" data-name="Path 29271" d="M1067.112,1084.755l-.064.135-.8,1.93h-.733l2.509-5.681,2.509,5.681h-.733l-.785-1.853-.064-.155-.926-2.181Zm-.27-.206h2.393l.232.643h-2.856Z" transform="translate(-772.131 -459.148)" fill="#706f6f"/>
    <path id="Path_29272" data-name="Path 29272" d="M1079.085,1081.37v5.681l-4.092-4.3v4.027h-.643V1081.1l4.091,4.3v-4.027Z" transform="translate(-775.284 -459.133)" fill="#706f6f"/>
    <path id="Path_29273" data-name="Path 29273" d="M1082.79,1081.52h3.435v.643h-1.37v4.793h-.644v-4.793h-1.39Z" transform="translate(-778.294 -459.283)" fill="#706f6f"/>
    <path id="Path_29274" data-name="Path 29274" d="M1095.148,1084.165h2.509a3.289,3.289,0,0,1-.167,1.068,2.87,2.87,0,0,1-.5.9,2.369,2.369,0,0,1-.817.643,2.509,2.509,0,0,1-1.1.231,2.9,2.9,0,0,1-1.087-.206,2.508,2.508,0,0,1-.869-.579,2.574,2.574,0,0,1-.579-.888,3.094,3.094,0,0,1,0-2.219,2.573,2.573,0,0,1,.579-.888,2.706,2.706,0,0,1,.869-.579,2.891,2.891,0,0,1,1.087-.2,3.047,3.047,0,0,1,.926.129,2.388,2.388,0,0,1,.753.386,2.247,2.247,0,0,1,.572.643l-.463.425a1.931,1.931,0,0,0-.714-.643,2.265,2.265,0,0,0-1.074-.238,1.93,1.93,0,0,0-1.029.27,2,2,0,0,0-.74.74,2.233,2.233,0,0,0-.277,1.113,2.2,2.2,0,0,0,.277,1.1,2.008,2.008,0,0,0,1.769,1.017,2.156,2.156,0,0,0,.727-.116,1.627,1.627,0,0,0,.547-.335,2.056,2.056,0,0,0,.386-.5,2.436,2.436,0,0,0,.219-.592h-1.8Z" transform="translate(-781.696 -459.258)" fill="#706f6f"/>
    <path id="Path_29275" data-name="Path 29275" d="M1102.452,1084.755l-.064.135-.8,1.93h-.733l2.509-5.681,2.509,5.681h-.733l-.785-1.853-.064-.155-.926-2.181Zm-.27-.206h2.393l.232.643h-2.856Z" transform="translate(-784.735 -459.148)" fill="#706f6f"/>
    <path id="Path_29276" data-name="Path 29276" d="M1110.333,1081.52v5.41h-.643v-5.41Zm-.289,0h1.132a2.187,2.187,0,0,1,.939.2,1.572,1.572,0,0,1,.643,2.284,1.564,1.564,0,0,1-.643.566,2.19,2.19,0,0,1-.939.193h-1.1v-.573h1.1a1.452,1.452,0,0,0,.643-.129.979.979,0,0,0,.418-.354,1.145,1.145,0,0,0,0-1.126,1.023,1.023,0,0,0-.418-.354,1.447,1.447,0,0,0-.643-.122h-1.1Zm1.332,2.747,1.93,2.663h-.811l-1.853-2.663Z" transform="translate(-787.888 -459.283)" fill="#706f6f"/>
    <path id="Path_29277" data-name="Path 29277" d="M1117.053,1081.52v5.41h-.643v-5.41Zm-.289,5.41v-.643h1.287a2.3,2.3,0,0,0,.836-.148,1.823,1.823,0,0,0,.643-.405,1.931,1.931,0,0,0,.418-.643,2.4,2.4,0,0,0,.142-.849,2.354,2.354,0,0,0-.142-.849,1.888,1.888,0,0,0-.418-.644,1.931,1.931,0,0,0-.643-.405,2.3,2.3,0,0,0-.836-.142h-1.287v-.643h1.287a2.863,2.863,0,0,1,1.4.341,2.535,2.535,0,0,1,.952.946,3.068,3.068,0,0,1,0,2.837,2.443,2.443,0,0,1-.952.946,2.863,2.863,0,0,1-1.4.341Z" transform="translate(-790.285 -459.283)" fill="#706f6f"/>
    <path id="Path_29278" data-name="Path 29278" d="M1125.213,1081.52v5.41h-.643v-5.41Zm-.29,0h2.721v.643h-2.721Zm0,2.168h2.573v.643h-2.573Zm0,2.625h2.721v.643h-2.721Z" transform="translate(-793.195 -459.283)" fill="#706f6f"/>
  </g>
</svg>
