<svg xmlns="http://www.w3.org/2000/svg" width="24" height="24" viewBox="0 0 24 24"><defs><style>.a{fill:#0275a7;}</style></defs><path class="a" d="M28.745,9.563a6.219,6.219,0,0,1-1.3,6.677,5.883,5.883,0,0,1-7.174.981l-1.653,1.844,1.179,1.21.7-.72a.907.907,0,0,1,1.3,0l5.715,5.9a.955.955,0,0,1,0,1.333L24.918,29.45a.907.907,0,0,1-1.3,0l-5.715-5.9a.955.955,0,0,1,0-1.333l.644-.658-1.124-1.151-7.9,8.822a1.816,1.816,0,0,1-2.609,0l-.652-.666a1.913,1.913,0,0,1,0-2.665l9-7.7-5.98-6.126H7.388L5.2,8.48l1.759-1.8,3.594,2.247.023,1.889,6.05,6.2,1.76-1.505a6.209,6.209,0,0,1,.579-7.937,5.905,5.905,0,0,1,6.507-1.34l-3.875,3.9,3.262,3.332,3.883-3.912ZM8.416,26.841a.909.909,0,0,0-1.3,0,.957.957,0,0,0,0,1.333.909.909,0,0,0,1.3,0A.957.957,0,0,0,8.416,26.841Z" transform="translate(-5.203 -5.785)"/></svg> 